<mxfile host="65bd71144e" modified="2021-01-04T10:56:17.291Z" agent="5.0 (Macintosh; Intel Mac OS X 10_15_7) AppleWebKit/537.36 (KHTML, like Gecko) Code/1.51.1 Chrome/83.0.4103.122 Electron/9.3.3 Safari/537.36" etag="dzO8qg_fZyQGlMpVIQig" version="13.10.0" type="embed" pages="4">
    <diagram id="C5RBs43oDa-KdzZeNtuy" name="Page-1">
        <mxGraphModel dx="592" dy="1769" grid="1" gridSize="10" guides="1" tooltips="1" connect="1" arrows="1" fold="1" page="1" pageScale="1" pageWidth="827" pageHeight="1169" math="0" shadow="0">
            <root>
                <mxCell id="WIyWlLk6GJQsqaUBKTNV-0"/>
                <mxCell id="WIyWlLk6GJQsqaUBKTNV-1" parent="WIyWlLk6GJQsqaUBKTNV-0"/>
                <mxCell id="WIyWlLk6GJQsqaUBKTNV-3" value="Inputs new entry&lt;br&gt;" style="rounded=1;whiteSpace=wrap;html=1;fontSize=12;glass=0;strokeWidth=1;shadow=0;" parent="WIyWlLk6GJQsqaUBKTNV-1" vertex="1">
                    <mxGeometry x="379" y="230" width="70" height="40" as="geometry"/>
                </mxCell>
                <mxCell id="WIyWlLk6GJQsqaUBKTNV-7" value="Plug in lamp" style="rounded=1;whiteSpace=wrap;html=1;fontSize=12;glass=0;strokeWidth=1;shadow=0;" parent="WIyWlLk6GJQsqaUBKTNV-1" vertex="1">
                    <mxGeometry x="170" y="360" width="120" height="40" as="geometry"/>
                </mxCell>
                <mxCell id="WIyWlLk6GJQsqaUBKTNV-8" value="No" style="rounded=0;html=1;jettySize=auto;orthogonalLoop=1;fontSize=11;endArrow=block;endFill=0;endSize=8;strokeWidth=1;shadow=0;labelBackgroundColor=none;edgeStyle=orthogonalEdgeStyle;" parent="WIyWlLk6GJQsqaUBKTNV-1" source="WIyWlLk6GJQsqaUBKTNV-10" target="WIyWlLk6GJQsqaUBKTNV-11" edge="1">
                    <mxGeometry x="0.3333" y="20" relative="1" as="geometry">
                        <mxPoint as="offset"/>
                    </mxGeometry>
                </mxCell>
                <mxCell id="WIyWlLk6GJQsqaUBKTNV-9" value="Yes" style="edgeStyle=orthogonalEdgeStyle;rounded=0;html=1;jettySize=auto;orthogonalLoop=1;fontSize=11;endArrow=block;endFill=0;endSize=8;strokeWidth=1;shadow=0;labelBackgroundColor=none;" parent="WIyWlLk6GJQsqaUBKTNV-1" source="WIyWlLk6GJQsqaUBKTNV-10" target="WIyWlLk6GJQsqaUBKTNV-12" edge="1">
                    <mxGeometry y="10" relative="1" as="geometry">
                        <mxPoint as="offset"/>
                    </mxGeometry>
                </mxCell>
                <mxCell id="WIyWlLk6GJQsqaUBKTNV-10" value="Bulb&lt;br&gt;burned out?" style="rhombus;whiteSpace=wrap;html=1;shadow=0;fontFamily=Helvetica;fontSize=12;align=center;strokeWidth=1;spacing=6;spacingTop=-4;" parent="WIyWlLk6GJQsqaUBKTNV-1" vertex="1">
                    <mxGeometry x="180" y="420" width="100" height="80" as="geometry"/>
                </mxCell>
                <mxCell id="WIyWlLk6GJQsqaUBKTNV-11" value="Repair Lamp" style="rounded=1;whiteSpace=wrap;html=1;fontSize=12;glass=0;strokeWidth=1;shadow=0;" parent="WIyWlLk6GJQsqaUBKTNV-1" vertex="1">
                    <mxGeometry x="170" y="565" width="120" height="40" as="geometry"/>
                </mxCell>
                <mxCell id="WIyWlLk6GJQsqaUBKTNV-12" value="Replace Bulb" style="rounded=1;whiteSpace=wrap;html=1;fontSize=12;glass=0;strokeWidth=1;shadow=0;" parent="WIyWlLk6GJQsqaUBKTNV-1" vertex="1">
                    <mxGeometry x="400" y="420" width="120" height="40" as="geometry"/>
                </mxCell>
                <mxCell id="JDcqy5tTRPsX78CX3u6c-0" value="" style="ellipse;whiteSpace=wrap;html=1;aspect=fixed;fillColor=#000000;" parent="WIyWlLk6GJQsqaUBKTNV-1" vertex="1">
                    <mxGeometry x="230" y="10" width="10" height="10" as="geometry"/>
                </mxCell>
                <mxCell id="JDcqy5tTRPsX78CX3u6c-1" value="Administrator" style="text;html=1;strokeColor=none;fillColor=none;align=center;verticalAlign=middle;whiteSpace=wrap;rounded=0;fontSize=17;" parent="WIyWlLk6GJQsqaUBKTNV-1" vertex="1">
                    <mxGeometry x="210" y="-30" width="40" height="20" as="geometry"/>
                </mxCell>
                <mxCell id="JDcqy5tTRPsX78CX3u6c-2" value="Database" style="text;html=1;strokeColor=none;fillColor=none;align=center;verticalAlign=middle;whiteSpace=wrap;rounded=0;fontSize=17;" parent="WIyWlLk6GJQsqaUBKTNV-1" vertex="1">
                    <mxGeometry x="480" y="-30" width="40" height="20" as="geometry"/>
                </mxCell>
                <mxCell id="JDcqy5tTRPsX78CX3u6c-4" value="Verifies against required criteria&amp;nbsp;" style="rounded=1;whiteSpace=wrap;html=1;fontSize=12;glass=0;strokeWidth=1;shadow=0;" parent="WIyWlLk6GJQsqaUBKTNV-1" vertex="1">
                    <mxGeometry x="550" y="370" width="100" height="40" as="geometry"/>
                </mxCell>
                <mxCell id="JDcqy5tTRPsX78CX3u6c-12" value="User registers details" style="rounded=1;whiteSpace=wrap;html=1;fontSize=12;glass=0;strokeWidth=1;shadow=0;" parent="WIyWlLk6GJQsqaUBKTNV-1" vertex="1">
                    <mxGeometry x="170" y="50" width="120" height="40" as="geometry"/>
                </mxCell>
                <mxCell id="JDcqy5tTRPsX78CX3u6c-14" value="" style="endArrow=none;html=1;fontSize=11;" parent="WIyWlLk6GJQsqaUBKTNV-1" edge="1">
                    <mxGeometry width="50" height="50" relative="1" as="geometry">
                        <mxPoint x="350" y="-40" as="sourcePoint"/>
                        <mxPoint x="360" y="560" as="targetPoint"/>
                    </mxGeometry>
                </mxCell>
                <mxCell id="JDcqy5tTRPsX78CX3u6c-19" value="Deletes Entry" style="rounded=1;whiteSpace=wrap;html=1;fontSize=12;glass=0;strokeWidth=1;shadow=0;" parent="WIyWlLk6GJQsqaUBKTNV-1" vertex="1">
                    <mxGeometry x="550" y="230" width="60" height="40" as="geometry"/>
                </mxCell>
                <mxCell id="JDcqy5tTRPsX78CX3u6c-24" value="" style="endArrow=classic;html=1;fontSize=11;exitX=1;exitY=0.5;exitDx=0;exitDy=0;" parent="WIyWlLk6GJQsqaUBKTNV-1" source="JDcqy5tTRPsX78CX3u6c-12" edge="1">
                    <mxGeometry width="50" height="50" relative="1" as="geometry">
                        <mxPoint x="240" y="100" as="sourcePoint"/>
                        <mxPoint x="450" y="70" as="targetPoint"/>
                    </mxGeometry>
                </mxCell>
                <mxCell id="JDcqy5tTRPsX78CX3u6c-25" value="Amends Entry" style="rounded=1;whiteSpace=wrap;html=1;fontSize=12;glass=0;strokeWidth=1;shadow=0;" parent="WIyWlLk6GJQsqaUBKTNV-1" vertex="1">
                    <mxGeometry x="470" y="230" width="60" height="40" as="geometry"/>
                </mxCell>
                <mxCell id="JDcqy5tTRPsX78CX3u6c-26" value="Verifies against required criteria&amp;nbsp;" style="rounded=1;whiteSpace=wrap;html=1;fontSize=12;glass=0;strokeWidth=1;shadow=0;" parent="WIyWlLk6GJQsqaUBKTNV-1" vertex="1">
                    <mxGeometry x="390" y="300" width="100" height="40" as="geometry"/>
                </mxCell>
                <mxCell id="JDcqy5tTRPsX78CX3u6c-27" value="Verifies against required criteria&amp;nbsp;" style="rounded=1;whiteSpace=wrap;html=1;fontSize=12;glass=0;strokeWidth=1;shadow=0;" parent="WIyWlLk6GJQsqaUBKTNV-1" vertex="1">
                    <mxGeometry x="510" y="300" width="100" height="40" as="geometry"/>
                </mxCell>
                <mxCell id="JDcqy5tTRPsX78CX3u6c-35" value="" style="endArrow=classic;html=1;fontSize=11;exitX=0.443;exitY=1.004;exitDx=0;exitDy=0;exitPerimeter=0;" parent="WIyWlLk6GJQsqaUBKTNV-1" source="JDcqy5tTRPsX78CX3u6c-38" target="JDcqy5tTRPsX78CX3u6c-42" edge="1">
                    <mxGeometry width="50" height="50" relative="1" as="geometry">
                        <mxPoint x="500" y="150" as="sourcePoint"/>
                        <mxPoint x="500" y="150" as="targetPoint"/>
                    </mxGeometry>
                </mxCell>
                <mxCell id="JDcqy5tTRPsX78CX3u6c-38" value="&lt;font color=&quot;#000000&quot;&gt;verifying mandatory fields&lt;/font&gt;" style="rounded=1;whiteSpace=wrap;html=1;fontSize=11;fontColor=#FFFFFF;gradientColor=#ffffff;fillColor=#FFFFFF;" parent="WIyWlLk6GJQsqaUBKTNV-1" vertex="1">
                    <mxGeometry x="450" y="50" width="110" height="40" as="geometry"/>
                </mxCell>
                <mxCell id="JDcqy5tTRPsX78CX3u6c-42" value="" style="rhombus;whiteSpace=wrap;html=1;" parent="WIyWlLk6GJQsqaUBKTNV-1" vertex="1">
                    <mxGeometry x="485" y="120" width="30" height="20" as="geometry"/>
                </mxCell>
            </root>
        </mxGraphModel>
    </diagram>
    <diagram id="2QYLpACKdUXMrDE0_cD8" name="Page-2">
        <mxGraphModel dx="592" dy="600" grid="1" gridSize="10" guides="1" tooltips="1" connect="1" arrows="1" fold="1" page="1" pageScale="1" pageWidth="827" pageHeight="1169" math="0" shadow="0">
            <root>
                <mxCell id="qqgfnfUDWsh_pfd9i19x-0"/>
                <mxCell id="qqgfnfUDWsh_pfd9i19x-1" parent="qqgfnfUDWsh_pfd9i19x-0"/>
                <mxCell id="qqgfnfUDWsh_pfd9i19x-2" value="Imm&lt;font color=&quot;#000000&quot;&gt;Implementation Constraints Plan&lt;/font&gt;" style="shape=table;childLayout=tableLayout;rowLines=0;columnLines=0;startSize=40;html=1;whiteSpace=wrap;collapsible=0;recursiveResize=0;expand=0;pointerEvents=0;fontStyle=1;align=center;fillColor=#FFFFFF;gradientColor=#ffffff;fontSize=11;fontColor=#FFFFFF;" parent="qqgfnfUDWsh_pfd9i19x-1" vertex="1">
                    <mxGeometry x="90" y="120" width="600" height="480" as="geometry"/>
                </mxCell>
                <mxCell id="qqgfnfUDWsh_pfd9i19x-3" value="" style="swimlane;horizontal=0;points=[[0,0.5],[1,0.5]];portConstraint=eastwest;startSize=40;html=1;whiteSpace=wrap;collapsible=0;recursiveResize=0;expand=0;pointerEvents=0;fontStyle=1" parent="qqgfnfUDWsh_pfd9i19x-2" vertex="1">
                    <mxGeometry y="40" width="600" height="147" as="geometry"/>
                </mxCell>
                <mxCell id="qqgfnfUDWsh_pfd9i19x-4" value="&lt;font style=&quot;font-size: 12px&quot;&gt;Constraint Category&lt;/font&gt;" style="swimlane;connectable=0;startSize=40;html=1;whiteSpace=wrap;collapsible=0;recursiveResize=0;expand=0;pointerEvents=0;fontSize=14;" parent="qqgfnfUDWsh_pfd9i19x-3" vertex="1">
                    <mxGeometry x="40" width="187" height="147" as="geometry"/>
                </mxCell>
                <mxCell id="qqgfnfUDWsh_pfd9i19x-15" value="Hardware and Software Platforms" style="text;html=1;align=center;verticalAlign=middle;resizable=0;points=[];autosize=1;fontSize=11;" parent="qqgfnfUDWsh_pfd9i19x-4" vertex="1">
                    <mxGeometry y="80" width="180" height="20" as="geometry"/>
                </mxCell>
                <mxCell id="qqgfnfUDWsh_pfd9i19x-5" value="Implementation Constraint" style="swimlane;connectable=0;startSize=40;html=1;whiteSpace=wrap;collapsible=0;recursiveResize=0;expand=0;pointerEvents=0;" parent="qqgfnfUDWsh_pfd9i19x-3" vertex="1">
                    <mxGeometry x="227" width="186" height="147" as="geometry"/>
                </mxCell>
                <mxCell id="qqgfnfUDWsh_pfd9i19x-6" value="Solution" style="swimlane;connectable=0;startSize=40;html=1;whiteSpace=wrap;collapsible=0;recursiveResize=0;expand=0;pointerEvents=0;" parent="qqgfnfUDWsh_pfd9i19x-3" vertex="1">
                    <mxGeometry x="413" width="187" height="147" as="geometry"/>
                </mxCell>
                <mxCell id="qqgfnfUDWsh_pfd9i19x-7" value="" style="swimlane;horizontal=0;points=[[0,0.5],[1,0.5]];portConstraint=eastwest;startSize=40;html=1;whiteSpace=wrap;collapsible=0;recursiveResize=0;expand=0;pointerEvents=0;" parent="qqgfnfUDWsh_pfd9i19x-2" vertex="1">
                    <mxGeometry y="187" width="600" height="146" as="geometry"/>
                </mxCell>
                <mxCell id="qqgfnfUDWsh_pfd9i19x-8" value="" style="swimlane;connectable=0;startSize=0;html=1;whiteSpace=wrap;collapsible=0;recursiveResize=0;expand=0;pointerEvents=0;" parent="qqgfnfUDWsh_pfd9i19x-7" vertex="1">
                    <mxGeometry x="40" width="187" height="146" as="geometry"/>
                </mxCell>
                <mxCell id="qqgfnfUDWsh_pfd9i19x-9" value="" style="swimlane;connectable=0;startSize=0;html=1;whiteSpace=wrap;collapsible=0;recursiveResize=0;expand=0;pointerEvents=0;" parent="qqgfnfUDWsh_pfd9i19x-7" vertex="1">
                    <mxGeometry x="227" width="186" height="146" as="geometry"/>
                </mxCell>
                <mxCell id="qqgfnfUDWsh_pfd9i19x-10" value="" style="swimlane;connectable=0;startSize=0;html=1;whiteSpace=wrap;collapsible=0;recursiveResize=0;expand=0;pointerEvents=0;" parent="qqgfnfUDWsh_pfd9i19x-7" vertex="1">
                    <mxGeometry x="413" width="187" height="146" as="geometry"/>
                </mxCell>
                <mxCell id="qqgfnfUDWsh_pfd9i19x-11" value="" style="swimlane;horizontal=0;points=[[0,0.5],[1,0.5]];portConstraint=eastwest;startSize=40;html=1;whiteSpace=wrap;collapsible=0;recursiveResize=0;expand=0;pointerEvents=0;" parent="qqgfnfUDWsh_pfd9i19x-2" vertex="1">
                    <mxGeometry y="333" width="600" height="147" as="geometry"/>
                </mxCell>
                <mxCell id="qqgfnfUDWsh_pfd9i19x-12" value="" style="swimlane;connectable=0;startSize=0;html=1;whiteSpace=wrap;collapsible=0;recursiveResize=0;expand=0;pointerEvents=0;" parent="qqgfnfUDWsh_pfd9i19x-11" vertex="1">
                    <mxGeometry x="40" width="187" height="147" as="geometry"/>
                </mxCell>
                <mxCell id="qqgfnfUDWsh_pfd9i19x-13" value="" style="swimlane;connectable=0;startSize=0;html=1;whiteSpace=wrap;collapsible=0;recursiveResize=0;expand=0;pointerEvents=0;" parent="qqgfnfUDWsh_pfd9i19x-11" vertex="1">
                    <mxGeometry x="227" width="186" height="147" as="geometry"/>
                </mxCell>
                <mxCell id="qqgfnfUDWsh_pfd9i19x-14" value="" style="swimlane;connectable=0;startSize=0;html=1;whiteSpace=wrap;collapsible=0;recursiveResize=0;expand=0;pointerEvents=0;" parent="qqgfnfUDWsh_pfd9i19x-11" vertex="1">
                    <mxGeometry x="413" width="187" height="147" as="geometry"/>
                </mxCell>
                <mxCell id="qqgfnfUDWsh_pfd9i19x-16" value="Text" style="text;html=1;align=center;verticalAlign=middle;resizable=0;points=[];autosize=1;fontSize=14;fontColor=#000000;" parent="qqgfnfUDWsh_pfd9i19x-1" vertex="1">
                    <mxGeometry x="360" y="210" width="40" height="20" as="geometry"/>
                </mxCell>
            </root>
        </mxGraphModel>
    </diagram>
    <diagram id="D1BVGPi_UiD6fO1uFJRp" name="Page-3">
        <mxGraphModel dx="592" dy="600" grid="1" gridSize="10" guides="1" tooltips="1" connect="1" arrows="1" fold="1" page="1" pageScale="1" pageWidth="827" pageHeight="1169" math="0" shadow="0">
            <root>
                <mxCell id="mXFCMK3577yhVZdCGQx_-0"/>
                <mxCell id="mXFCMK3577yhVZdCGQx_-1" parent="mXFCMK3577yhVZdCGQx_-0"/>
                <mxCell id="mXFCMK3577yhVZdCGQx_-3" value="HomePage" style="rounded=1;whiteSpace=wrap;html=1;fillColor=#FFFFFF;gradientColor=#ffffff;fontSize=14;fontColor=#000000;" parent="mXFCMK3577yhVZdCGQx_-1" vertex="1">
                    <mxGeometry x="50" y="80" width="120" height="60" as="geometry"/>
                </mxCell>
                <mxCell id="mXFCMK3577yhVZdCGQx_-6" value="" style="edgeStyle=orthogonalEdgeStyle;rounded=0;orthogonalLoop=1;jettySize=auto;html=1;fontSize=14;fontColor=#000000;" parent="mXFCMK3577yhVZdCGQx_-1" source="mXFCMK3577yhVZdCGQx_-4" target="mXFCMK3577yhVZdCGQx_-5" edge="1">
                    <mxGeometry relative="1" as="geometry">
                        <Array as="points">
                            <mxPoint x="110" y="160"/>
                            <mxPoint x="310" y="160"/>
                        </Array>
                    </mxGeometry>
                </mxCell>
                <mxCell id="mXFCMK3577yhVZdCGQx_-4" value="Register Animal" style="rounded=1;whiteSpace=wrap;html=1;fillColor=#FFFFFF;gradientColor=#ffffff;fontSize=14;fontColor=#000000;" parent="mXFCMK3577yhVZdCGQx_-1" vertex="1">
                    <mxGeometry x="50" y="180" width="120" height="60" as="geometry"/>
                </mxCell>
                <mxCell id="mXFCMK3577yhVZdCGQx_-9" value="" style="edgeStyle=orthogonalEdgeStyle;rounded=0;orthogonalLoop=1;jettySize=auto;html=1;fontSize=14;fontColor=#000000;" parent="mXFCMK3577yhVZdCGQx_-1" source="mXFCMK3577yhVZdCGQx_-5" target="mXFCMK3577yhVZdCGQx_-8" edge="1">
                    <mxGeometry relative="1" as="geometry">
                        <Array as="points">
                            <mxPoint x="310" y="160"/>
                            <mxPoint x="510" y="160"/>
                        </Array>
                    </mxGeometry>
                </mxCell>
                <mxCell id="mXFCMK3577yhVZdCGQx_-5" value="Practices" style="rounded=1;whiteSpace=wrap;html=1;fillColor=#FFFFFF;gradientColor=#ffffff;fontSize=14;fontColor=#000000;" parent="mXFCMK3577yhVZdCGQx_-1" vertex="1">
                    <mxGeometry x="250" y="180" width="120" height="60" as="geometry"/>
                </mxCell>
                <mxCell id="mXFCMK3577yhVZdCGQx_-8" value="Animals" style="rounded=1;whiteSpace=wrap;html=1;fillColor=#FFFFFF;gradientColor=#ffffff;fontSize=14;fontColor=#000000;" parent="mXFCMK3577yhVZdCGQx_-1" vertex="1">
                    <mxGeometry x="450" y="180" width="120" height="60" as="geometry"/>
                </mxCell>
            </root>
        </mxGraphModel>
    </diagram>
    <diagram id="pZ7JOHBQG-Z5FHkLrlox" name="Page-4">
        <mxGraphModel dx="592" dy="600" grid="1" gridSize="10" guides="1" tooltips="1" connect="1" arrows="1" fold="1" page="1" pageScale="1" pageWidth="827" pageHeight="1169" math="0" shadow="0">
            <root>
                <mxCell id="AFDIAnYJdEOhmU6g30Nl-0"/>
                <mxCell id="AFDIAnYJdEOhmU6g30Nl-1" parent="AFDIAnYJdEOhmU6g30Nl-0"/>
            </root>
        </mxGraphModel>
    </diagram>
</mxfile>